<svg width="112" height="24" viewBox="0 0 112 24" fill="none" xmlns="http://www.w3.org/2000/svg">
<path fill-rule="evenodd" clip-rule="evenodd" d="M95.1196 4.88579V9.09301H99.8577V19.1129H105.237V9.09301H109.973V4.88579H95.1196ZM78.6221 4.88579V19.1129H84.9032L88.4555 11.1462H88.5384V19.1129H93.9166V4.88579H87.6329L84.0813 13.0138H83.9979V4.88579H78.6221ZM71.2326 9.80387H67.6418V4.88579H62.2612V19.1129H67.6418V13.8679H71.2326V19.1129H76.6156V4.88579H71.2326V9.80387ZM53.0302 8.05373C55.0578 8.05373 55.197 10.5155 55.197 11.999C55.197 13.4821 55.0578 15.9418 53.0302 15.9418C51.0025 15.9418 50.8598 13.4821 50.8598 11.999C50.8598 10.5155 51.0025 8.05373 53.0302 8.05373ZM53.0302 4.64206C48.0723 4.64206 45.2012 7.46609 45.2012 11.999C45.2012 16.5309 48.0723 19.358 53.0302 19.358C57.9867 19.358 60.855 16.5309 60.855 11.999C60.855 7.46609 57.9867 4.64206 53.0302 4.64206ZM34.1013 13.2587H36.7114C38.4359 13.2587 38.7979 14.0525 38.7979 14.6421C38.7979 15.1289 38.4359 15.9418 36.5485 15.9418C34.9634 15.9418 33.2191 15.5757 31.7727 14.9863V18.685C34.1612 19.2787 35.7463 19.358 37.1921 19.358C43.3742 19.358 44.4587 16.7943 44.4587 15.0685C44.4587 13.1984 42.933 12.08 41.2877 11.9386V11.8551C43.0926 11.6121 44.0173 10.1693 44.0173 8.7861C44.0173 7.22282 43.2347 4.64206 37.4547 4.64206C35.4472 4.64206 33.8194 4.80349 32.1344 5.18954V8.7861C33.5803 8.2788 35.0466 8.05373 36.2903 8.05373C37.1723 8.05373 38.6979 8.178 38.6979 9.2555C38.6979 10.3927 37.2719 10.4552 36.6503 10.4552H34.1013V13.2587ZM17.9232 4.86412V19.1129H30.3287V15.7597H23.3025V13.5437H29.8859V10.2904H23.3025V8.21832H30.1876V4.86412H17.9232ZM7.26561 8.178H8.42967C10.4762 8.178 10.9189 9.11332 10.9189 9.94454C10.9189 11.6738 9.09149 11.7142 8.4481 11.7142H7.26561V8.178ZM2.02722 4.88579V19.1129H7.40648V15.0063H10.3549C14.7312 15.0063 16.3378 12.2613 16.3378 9.98621C16.3378 7.38545 14.4921 4.88579 10.257 4.88579H2.02722Z" fill="url(#paint0_linear)"/>
<defs>
<linearGradient id="paint0_linear" x1="2.02722" y1="11.4432" x2="109.973" y2="11.4432" gradientUnits="userSpaceOnUse">
<stop stop-color="#14B775"/>
<stop offset="1" stop-color="#3D8FB4"/>
</linearGradient>
</defs>
</svg>
