<svg width="134" height="29" viewBox="0 0 134 29" fill="none" xmlns="http://www.w3.org/2000/svg">
<path fill-rule="evenodd" clip-rule="evenodd" d="M119.147 3.95543V8.16265H123.885V18.1826H129.264V8.16265H134V3.95543H119.147ZM102.649 3.95543V18.1826H108.93L112.483 10.2158H112.566V18.1826H117.944V3.95543H111.66L108.108 12.0834H108.025V3.95543H102.649ZM95.2597 8.87351H91.6689V3.95543H86.2883V18.1826H91.6689V12.9375H95.2597V18.1826H100.643V3.95543H95.2597V8.87351ZM77.0573 7.12337C79.085 7.12337 79.2242 9.58512 79.2242 11.0687C79.2242 12.5518 79.085 15.0115 77.0573 15.0115C75.0297 15.0115 74.887 12.5518 74.887 11.0687C74.887 9.58512 75.0297 7.12337 77.0573 7.12337ZM77.0573 3.71171C72.0995 3.71171 69.2284 6.53573 69.2284 11.0687C69.2284 15.6006 72.0995 18.4276 77.0573 18.4276C82.0138 18.4276 84.8822 15.6006 84.8822 11.0687C84.8822 6.53573 82.0138 3.71171 77.0573 3.71171ZM58.1284 12.3284H60.7386C62.4631 12.3284 62.8251 13.1221 62.8251 13.7117C62.8251 14.1985 62.4631 15.0115 60.5757 15.0115C58.9906 15.0115 57.2463 14.6454 55.7999 14.0559V17.7547C58.1883 18.3483 59.7735 18.4276 61.2192 18.4276C67.4013 18.4276 68.4859 15.864 68.4859 14.1382C68.4859 12.268 66.9602 11.1496 65.3148 11.0082V10.9247C67.1198 10.6817 68.0444 9.23895 68.0444 7.85574C68.0444 6.29246 67.2618 3.71171 61.4818 3.71171C59.4744 3.71171 57.8466 3.87313 56.1615 4.25918V7.85574C57.6075 7.34844 59.0738 7.12337 60.3175 7.12337C61.1995 7.12337 62.7251 7.24764 62.7251 8.32514C62.7251 9.46236 61.299 9.5248 60.6775 9.5248H58.1284V12.3284ZM41.9504 3.93376V18.1826H54.3559V14.8293H47.3297V12.6133H53.9131V9.36006H47.3297V7.28796H54.2147V3.93376H41.9504ZM31.2928 7.24764H32.4568C34.5034 7.24764 34.946 8.18297 34.946 9.01418C34.946 10.7434 33.1187 10.7839 32.4753 10.7839H31.2928V7.24764ZM26.0544 3.95543V18.1826H31.4336V14.0759H34.3821C38.7584 14.0759 40.3649 11.3309 40.3649 9.05585C40.3649 6.45509 38.5193 3.95543 34.2842 3.95543H26.0544Z" fill="url(#paint0_linear)"/>
<path fill-rule="evenodd" clip-rule="evenodd" d="M13.4581 17.9736H14.114V14.4578L11.9641 15.3052L13.2379 15.8412L13.2916 15.8653V16.6481C13.3883 16.6857 13.4581 16.7824 13.4581 16.8917V17.321V17.71V17.9736ZM12.4279 17.9736H12.9247V16.8917C12.9247 16.7717 13.0044 16.6711 13.1152 16.6397V15.9796L11.7319 15.3972L11.4302 15.5154L12.2043 15.8412L12.2589 15.8653V16.6481C12.3585 16.6857 12.4279 16.7824 12.4279 16.8917V17.321V17.71V17.9736ZM11.3963 17.9736H11.8945V16.8917C11.8945 16.7717 11.9737 16.6711 12.082 16.6397V15.9796L11.1996 15.6076L10.898 15.7257L11.174 15.8412L11.2282 15.8653V16.6481C11.3252 16.6857 11.3963 16.7824 11.3963 16.8917V17.321V17.71V17.9736ZM10.2164 17.9736H10.861V16.8917C10.861 16.7717 10.9409 16.6711 11.0531 16.6397V15.9796L10.6674 15.8184L10.2164 15.9966V17.9736ZM6.31867 11.0268H11.8573C14.1941 11.0268 15.2259 13.4032 12.2987 14.625L11.8378 14.8164L11.1913 15.0355L9.67994 15.5459L7.57676 14.6453V13.5698V12.7059H8.45483H9.67675L10.309 13.7983H10.5764H11.2409C13.2545 13.7983 13.4921 11.8929 11.5445 11.8929H10.4428H9.58011H7.19501V14.8986L9.67675 15.9044V17.9736H6.31867V11.0268ZM7.19501 15.8326V17.1088H8.80077V16.4834L7.19501 15.8326ZM3.04272 13.0166L0 10.0144L0.736972 9.28794L4.08698 12.5905V15.1624H4.08407V21.4201L11.0233 28.273L10.2863 28.9994L3.04272 21.8483V13.0166ZM6.74517 19.1778V20.3325L12.9073 26.4144L12.1693 27.1432L5.70418 20.762V19.1778H6.74517ZM5.3922 11.622L1.88164 8.15703L2.61988 7.42948L5.3922 10.1668V11.622ZM9.40685 19.1778V19.2445L14.7889 24.5572L14.0489 25.2845L8.36237 19.6706V19.1778H9.40685ZM7.3317 9.82097L3.76264 6.29963L4.50112 5.57207L8.80907 9.82097H7.3317ZM13.1009 19.1778L16.67 22.6996L15.932 23.4289L11.6268 19.1778H13.1009ZM11.0263 9.75462L5.64427 4.44222L6.38386 3.71285L12.0706 9.32856V9.82097H11.0263V9.75462ZM15.0395 17.3774L18.5521 20.8423L17.8115 21.5698L15.0395 18.8338V17.3774ZM13.6877 8.66689L7.52818 2.58496L8.26532 1.8562L14.7293 8.24023V9.82097H13.6877V8.66689ZM16.3488 7.57782L9.40837 0.727552L10.1464 -7.62939e-06L17.3907 7.1495V15.1636V15.9837L20.4331 18.9848L19.6955 19.7146L16.3471 16.4092L16.3488 7.57782ZM9.82947 14.6709L9.25293 13.5698H8.45483V14.132L9.79406 14.7143L9.82947 14.6709Z" fill="url(#paint1_linear)"/>
<defs>
<linearGradient id="paint0_linear" x1="26.0544" y1="10.5128" x2="134" y2="10.5128" gradientUnits="userSpaceOnUse">
<stop stop-color="#14B775"/>
<stop offset="1" stop-color="#3D8FB4"/>
</linearGradient>
<linearGradient id="paint1_linear" x1="-1.20096e-07" y1="13.4024" x2="20.4331" y2="13.4024" gradientUnits="userSpaceOnUse">
<stop stop-color="#14B775"/>
<stop offset="1" stop-color="#3D8FB4"/>
</linearGradient>
</defs>
</svg>
