<svg width="16" height="16" viewBox="0 0 16 16" fill="none" xmlns="http://www.w3.org/2000/svg">
<path d="M10.854 7.85402C10.9479 7.76013 11.0007 7.6328 11.0007 7.50002C11.0007 7.36725 10.9479 7.23991 10.854 7.14602C10.7601 7.05213 10.6328 6.99939 10.5 6.99939C10.3672 6.99939 10.2399 7.05213 10.146 7.14602L7.50002 9.79302L6.35402 8.64602C6.26013 8.55213 6.1328 8.49939 6.00002 8.49939C5.86725 8.49939 5.73991 8.55213 5.64602 8.64602C5.55213 8.73991 5.49939 8.86725 5.49939 9.00002C5.49939 9.1328 5.55213 9.26013 5.64602 9.35402L7.14602 10.854C7.19247 10.9006 7.24764 10.9375 7.30839 10.9627C7.36913 10.9879 7.43425 11.0009 7.50002 11.0009C7.56579 11.0009 7.63091 10.9879 7.69166 10.9627C7.7524 10.9375 7.80758 10.9006 7.85402 10.854L10.854 7.85402Z" fill="white"/>
<path d="M14 14V4.5L9.5 0H4C3.46957 0 2.96086 0.210714 2.58579 0.585786C2.21071 0.960859 2 1.46957 2 2V14C2 14.5304 2.21071 15.0391 2.58579 15.4142C2.96086 15.7893 3.46957 16 4 16H12C12.5304 16 13.0391 15.7893 13.4142 15.4142C13.7893 15.0391 14 14.5304 14 14ZM9.5 3C9.5 3.39782 9.65804 3.77936 9.93934 4.06066C10.2206 4.34196 10.6022 4.5 11 4.5H13V14C13 14.2652 12.8946 14.5196 12.7071 14.7071C12.5196 14.8946 12.2652 15 12 15H4C3.73478 15 3.48043 14.8946 3.29289 14.7071C3.10536 14.5196 3 14.2652 3 14V2C3 1.73478 3.10536 1.48043 3.29289 1.29289C3.48043 1.10536 3.73478 1 4 1H9.5V3Z" fill="white"/>
</svg>
